{"title":"Scorpions - MTV Unplugged Live in Athens 2013 ts Video (Viva TV)","uid":9286564,"size":1278437969,"categoryP":"video","categoryS":"movies","magnet":"?xt=urn:btih:20b84139b518969c27d21fcbd5b0252a5845588d&amp;dn=Scorpions+-+MTV+Unplugged+Live+in+Athens+2013+ts+Video+%28Viva+TV%29&amp;tr=udp%3A%2F%2Ftracker.openbittorrent.com%3A80&amp;tr=udp%3A%2F%2Fopen.demonii.com%3A1337&amp;tr=udp%3A%2F%2Ftracker.coppersurfer.tk%3A6969&amp;tr=udp%3A%2F%2Fexodus.desync.com%3A6969","seeders":4,"leechers":0,"uploader":"abdenna","files":3,"time":1386027557,"description":"Scorpions - MTV Unplugged Live in Athens 2013 ts Video (Viva TV) (By Jamal The Moroccan)\n\nGeneral\nID                                       : 1 (0x1)\nComplete name                            : Scorpions - MTV Unplugged. Live in Athens 2013.ts\nFormat                                   : MPEG-TS\nFile size                                : 1.19 GiB\nDuration                                 : 44mn 6s\nOverall bit rate mode                    : Variable\nOverall bit rate                         : 3 864 Kbps\n\nVideo\nID                                       : 4061 (0xFDD)\nMenu ID                                  : 1 (0x1)\nFormat                                   : MPEG Video\nFormat version                           : Version 2\nFormat profile                           : Main@Main\nFormat settings, BVOP                    : Yes\nFormat settings, Matrix                  : Custom\nFormat settings, GOP                     : M=3, N=12\nCodec ID                                 : 2\nDuration                                 : 44mn 6s\nBit rate mode                            : Variable\nBit rate                                 : 3 415 Kbps\nMaximum bit rate                         : 9 000 Kbps\nWidth                                    : 720 pixels\nHeight                                   : 576 pixels\nDisplay aspect ratio                     : 16:9\nFrame rate                               : 25.000 fps\nStandard                                 : PAL\nColor space                              : YUV\nChroma subsampling                       : 4:2:0\nBit depth                                : 8 bits\nScan type                                : Interlaced\nScan order                               : Top Field First\nCompression mode                         : Lossy\nBits/(Pixel*Frame)                       : 0.329\nTime code of first frame                 : 00:00:00:00\nTime code source                         : Group of pictures header\nStream size                              : 1.05 GiB (88%)\n\nAudio\nID                                       : 4062 (0xFDE)\nMenu ID                                  : 1 (0x1)\nFormat                                   : MPEG Audio\nFormat version                           : Version 1\nFormat profile                           : Layer 2\nCodec ID                                 : 3\nDuration                                 : 44mn 6s\nBit rate mode                            : Constant\nBit rate                                 : 256 Kbps\nChannel(s)                               : 2 channels\nSampling rate                            : 48.0 KHz\nCompression mode                         : Lossy\nDelay relative to video                  : 7ms\nStream size                              : 80.8 MiB (7%)\nLanguage                                 : English\n\nText\nID                                       : 4064 (0xFE0)-100\nMenu ID                                  : 1 (0x1)\nFormat                                   : Teletext\nLanguage                                 : German\n\nMenu\nID                                       : 416 (0x1A0)\nMenu ID                                  : 1 (0x1)\nDuration                                 : 44mn 6s\nList                                     : 4061 (0xFDD) (MPEG Video) / 4062 (0xFDE) (MPEG Audio, English) / 4064 (0xFE0) ()\nLanguage                                 :  / English","torrent":{"xt":"urn:btih:20b84139b518969c27d21fcbd5b0252a5845588d","amp;dn":"Scorpions+-+MTV+Unplugged+Live+in+Athens+2013+ts+Video+%28Viva+TV%29","amp;tr":["udp%3A%2F%2Ftracker.openbittorrent.com%3A80","udp%3A%2F%2Fopen.demonii.com%3A1337","udp%3A%2F%2Ftracker.coppersurfer.tk%3A6969","udp%3A%2F%2Fexodus.desync.com%3A6969"],"infoHash":"20b84139b518969c27d21fcbd5b0252a5845588d","infoHashBuffer":{"type":"Buffer","data":[32,184,65,57,181,24,150,156,39,210,31,203,213,176,37,42,88,69,88,141]},"announce":[],"urlList":[]}}